<mxfile host="app.diagrams.net" agent="Mozilla/5.0 (X11; Linux x86_64) AppleWebKit/537.36 (KHTML, like Gecko) Chrome/139.0.0.0 Safari/537.36" version="28.1.1">
  <diagram name="Page-1" id="zWhXpKK_r-Z8M6l7Udmz">
    <mxGraphModel dx="1132" dy="664" grid="1" gridSize="10" guides="1" tooltips="1" connect="1" arrows="1" fold="1" page="1" pageScale="1" pageWidth="827" pageHeight="1169" math="0" shadow="0">
      <root>
        <mxCell id="0" />
        <mxCell id="1" parent="0" />
        <mxCell id="eplZzicgOQm__7bpvk1a-22" value="" style="rounded=0;whiteSpace=wrap;html=1;fillColor=none;movable=1;resizable=1;rotatable=1;deletable=1;editable=1;locked=0;connectable=1;" parent="1" vertex="1">
          <mxGeometry x="70" y="395" width="699.9986" height="340.15680000000003" as="geometry" />
        </mxCell>
        <mxCell id="eplZzicgOQm__7bpvk1a-56" value="&lt;font face=&quot;Times New Roman&quot; style=&quot;font-size: 20px;&quot;&gt;&lt;b&gt;Joystick and Button Layout&lt;/b&gt;&lt;/font&gt;" style="text;html=1;align=center;verticalAlign=middle;whiteSpace=wrap;rounded=0;" parent="1" vertex="1">
          <mxGeometry x="260" y="50" width="306" height="70" as="geometry" />
        </mxCell>
        <mxCell id="eplZzicgOQm__7bpvk1a-59" value="&lt;font face=&quot;Times New Roman&quot; style=&quot;font-size: 40px;&quot;&gt;Select&lt;/font&gt;" style="text;html=1;align=center;verticalAlign=middle;whiteSpace=wrap;rounded=0;" parent="1" vertex="1">
          <mxGeometry x="351" y="650" width="60" height="30" as="geometry" />
        </mxCell>
        <mxCell id="eplZzicgOQm__7bpvk1a-60" value="&lt;font face=&quot;Times New Roman&quot; style=&quot;font-size: 40px;&quot;&gt;X&lt;/font&gt;" style="text;html=1;align=center;verticalAlign=middle;whiteSpace=wrap;rounded=0;" parent="1" vertex="1">
          <mxGeometry x="520" y="450" width="40" height="30" as="geometry" />
        </mxCell>
        <mxCell id="eplZzicgOQm__7bpvk1a-61" value="&lt;font face=&quot;Times New Roman&quot; style=&quot;font-size: 40px;&quot;&gt;Y&lt;/font&gt;" style="text;html=1;align=center;verticalAlign=middle;whiteSpace=wrap;rounded=0;" parent="1" vertex="1">
          <mxGeometry x="520" y="610" width="40" height="30" as="geometry" />
        </mxCell>
        <mxCell id="eplZzicgOQm__7bpvk1a-63" value="&lt;font face=&quot;Times New Roman&quot; style=&quot;font-size: 40px;&quot;&gt;A&lt;/font&gt;" style="text;html=1;align=center;verticalAlign=middle;whiteSpace=wrap;rounded=0;" parent="1" vertex="1">
          <mxGeometry x="680" y="450" width="40" height="30" as="geometry" />
        </mxCell>
        <mxCell id="eplZzicgOQm__7bpvk1a-64" value="&lt;font face=&quot;Times New Roman&quot; style=&quot;font-size: 40px;&quot;&gt;B&lt;/font&gt;" style="text;html=1;align=center;verticalAlign=middle;whiteSpace=wrap;rounded=0;" parent="1" vertex="1">
          <mxGeometry x="680" y="610" width="40" height="30" as="geometry" />
        </mxCell>
        <mxCell id="eplZzicgOQm__7bpvk1a-43" value="" style="group" parent="1" vertex="1" connectable="0">
          <mxGeometry x="80" y="506" width="145.66899999999998" height="145.66999999999996" as="geometry" />
        </mxCell>
        <mxCell id="eplZzicgOQm__7bpvk1a-2" value="" style="ellipse;whiteSpace=wrap;html=1;aspect=fixed;fillColor=none;" parent="eplZzicgOQm__7bpvk1a-43" vertex="1">
          <mxGeometry x="43.31" y="43.31" width="59.055" height="59.05" as="geometry" />
        </mxCell>
        <mxCell id="eplZzicgOQm__7bpvk1a-38" value="" style="endArrow=classic;startArrow=classic;html=1;rounded=0;entryX=0.5;entryY=0;entryDx=0;entryDy=0;exitX=0.5;exitY=1;exitDx=0;exitDy=0;" parent="eplZzicgOQm__7bpvk1a-43" source="eplZzicgOQm__7bpvk1a-1" target="eplZzicgOQm__7bpvk1a-1" edge="1">
          <mxGeometry width="50" height="50" relative="1" as="geometry">
            <mxPoint x="140" y="149" as="sourcePoint" />
            <mxPoint x="190" y="99" as="targetPoint" />
          </mxGeometry>
        </mxCell>
        <mxCell id="eplZzicgOQm__7bpvk1a-34" value="&lt;font&gt;15 mm&lt;/font&gt;" style="text;html=1;align=center;verticalAlign=middle;whiteSpace=wrap;rounded=0;" parent="eplZzicgOQm__7bpvk1a-43" vertex="1">
          <mxGeometry x="42.370000000000005" y="44.079999999999984" width="60" height="30" as="geometry" />
        </mxCell>
        <mxCell id="eplZzicgOQm__7bpvk1a-1" value="" style="ellipse;whiteSpace=wrap;html=1;strokeWidth=1;aspect=fixed;fillColor=none;" parent="eplZzicgOQm__7bpvk1a-43" vertex="1">
          <mxGeometry width="145.66899999999998" height="145.67" as="geometry" />
        </mxCell>
        <mxCell id="eplZzicgOQm__7bpvk1a-33" value="" style="endArrow=classic;startArrow=classic;html=1;rounded=0;exitX=0;exitY=0.5;exitDx=0;exitDy=0;entryX=1;entryY=0.5;entryDx=0;entryDy=0;" parent="eplZzicgOQm__7bpvk1a-43" source="eplZzicgOQm__7bpvk1a-2" target="eplZzicgOQm__7bpvk1a-2" edge="1">
          <mxGeometry width="50" height="50" relative="1" as="geometry">
            <mxPoint x="140" y="149" as="sourcePoint" />
            <mxPoint x="190" y="99" as="targetPoint" />
          </mxGeometry>
        </mxCell>
        <mxCell id="eplZzicgOQm__7bpvk1a-41" value="37 mm" style="text;html=1;align=center;verticalAlign=middle;whiteSpace=wrap;rounded=0;" parent="eplZzicgOQm__7bpvk1a-43" vertex="1">
          <mxGeometry x="70" y="9.079999999999984" width="60" height="30" as="geometry" />
        </mxCell>
        <mxCell id="eplZzicgOQm__7bpvk1a-48" value="" style="group;fillColor=none;" parent="1" vertex="1" connectable="0">
          <mxGeometry x="640" y="405" width="122.04700000000003" height="122.05000000000001" as="geometry" />
        </mxCell>
        <mxCell id="eplZzicgOQm__7bpvk1a-14" value="" style="ellipse;whiteSpace=wrap;html=1;aspect=fixed;fillColor=none;" parent="eplZzicgOQm__7bpvk1a-48" vertex="1">
          <mxGeometry width="122.047" height="122.05" as="geometry" />
        </mxCell>
        <mxCell id="eplZzicgOQm__7bpvk1a-15" value="" style="ellipse;whiteSpace=wrap;html=1;aspect=fixed;fillColor=none;" parent="eplZzicgOQm__7bpvk1a-48" vertex="1">
          <mxGeometry x="7.8700000000000045" y="7.8799999999999955" width="106.29899999999999" height="106.3" as="geometry" />
        </mxCell>
        <mxCell id="eplZzicgOQm__7bpvk1a-49" value="" style="group" parent="1" vertex="1" connectable="0">
          <mxGeometry x="640" y="565" width="122.04700000000003" height="122.04999999999995" as="geometry" />
        </mxCell>
        <mxCell id="eplZzicgOQm__7bpvk1a-20" value="" style="ellipse;whiteSpace=wrap;html=1;aspect=fixed;fillColor=none;" parent="eplZzicgOQm__7bpvk1a-49" vertex="1">
          <mxGeometry width="122.047" height="122.05" as="geometry" />
        </mxCell>
        <mxCell id="eplZzicgOQm__7bpvk1a-21" value="" style="ellipse;whiteSpace=wrap;html=1;aspect=fixed;fillColor=none;" parent="eplZzicgOQm__7bpvk1a-49" vertex="1">
          <mxGeometry x="7.8700000000000045" y="7.8799999999999955" width="106.29899999999999" height="106.3" as="geometry" />
        </mxCell>
        <mxCell id="eplZzicgOQm__7bpvk1a-50" value="" style="group" parent="1" vertex="1" connectable="0">
          <mxGeometry x="480" y="565" width="122.04700000000003" height="122.04999999999995" as="geometry" />
        </mxCell>
        <mxCell id="eplZzicgOQm__7bpvk1a-17" value="" style="ellipse;whiteSpace=wrap;html=1;aspect=fixed;fillColor=none;" parent="eplZzicgOQm__7bpvk1a-50" vertex="1">
          <mxGeometry width="122.047" height="122.05" as="geometry" />
        </mxCell>
        <mxCell id="eplZzicgOQm__7bpvk1a-18" value="" style="ellipse;whiteSpace=wrap;html=1;aspect=fixed;fillColor=none;" parent="eplZzicgOQm__7bpvk1a-50" vertex="1">
          <mxGeometry x="7.8700000000000045" y="7.8799999999999955" width="106.29899999999999" height="106.3" as="geometry" />
        </mxCell>
        <mxCell id="eplZzicgOQm__7bpvk1a-51" value="" style="group" parent="1" vertex="1" connectable="0">
          <mxGeometry x="480" y="405" width="122.04700000000003" height="122.05000000000001" as="geometry" />
        </mxCell>
        <mxCell id="eplZzicgOQm__7bpvk1a-11" value="" style="ellipse;whiteSpace=wrap;html=1;aspect=fixed;fillColor=none;" parent="eplZzicgOQm__7bpvk1a-51" vertex="1">
          <mxGeometry width="122.047" height="122.05" as="geometry" />
        </mxCell>
        <mxCell id="eplZzicgOQm__7bpvk1a-12" value="" style="ellipse;whiteSpace=wrap;html=1;aspect=fixed;fillColor=none;" parent="eplZzicgOQm__7bpvk1a-51" vertex="1">
          <mxGeometry x="7.8700000000000045" y="7.8799999999999955" width="106.29899999999999" height="106.3" as="geometry" />
        </mxCell>
        <mxCell id="eplZzicgOQm__7bpvk1a-52" value="" style="group" parent="1" vertex="1" connectable="0">
          <mxGeometry x="320" y="605" width="122.04700000000003" height="122.04999999999995" as="geometry" />
        </mxCell>
        <mxCell id="eplZzicgOQm__7bpvk1a-8" value="" style="ellipse;whiteSpace=wrap;html=1;aspect=fixed;fillColor=none;" parent="eplZzicgOQm__7bpvk1a-52" vertex="1">
          <mxGeometry width="122.047" height="122.05" as="geometry" />
        </mxCell>
        <mxCell id="eplZzicgOQm__7bpvk1a-9" value="" style="ellipse;whiteSpace=wrap;html=1;aspect=fixed;fillColor=none;" parent="eplZzicgOQm__7bpvk1a-52" vertex="1">
          <mxGeometry x="7.8700000000000045" y="7.8799999999999955" width="106.29899999999999" height="106.3" as="geometry" />
        </mxCell>
        <mxCell id="eplZzicgOQm__7bpvk1a-4" value="" style="ellipse;whiteSpace=wrap;html=1;aspect=fixed;container=0;fillColor=none;" parent="1" vertex="1">
          <mxGeometry x="320" y="445" width="122.047" height="122.05" as="geometry" />
        </mxCell>
        <mxCell id="eplZzicgOQm__7bpvk1a-5" value="" style="ellipse;whiteSpace=wrap;html=1;aspect=fixed;fillColor=none;container=0;" parent="1" vertex="1">
          <mxGeometry x="327.87" y="452.88" width="106.29899999999999" height="106.3" as="geometry" />
        </mxCell>
        <mxCell id="eplZzicgOQm__7bpvk1a-37" value="&lt;font face=&quot;Times New Roman&quot;&gt;31 / 27 mm&lt;/font&gt;" style="text;html=1;align=center;verticalAlign=middle;whiteSpace=wrap;rounded=0;" parent="1" vertex="1">
          <mxGeometry x="351" y="405" width="60" height="30" as="geometry" />
        </mxCell>
        <mxCell id="eplZzicgOQm__7bpvk1a-46" value="" style="endArrow=classic;startArrow=classic;html=1;rounded=0;entryX=0;entryY=0.5;entryDx=0;entryDy=0;exitX=1;exitY=0.5;exitDx=0;exitDy=0;" parent="1" edge="1">
          <mxGeometry width="50" height="50" relative="1" as="geometry">
            <mxPoint x="442.04700000000184" y="429.9950000000001" as="sourcePoint" />
            <mxPoint x="319.9999999999984" y="429.9950000000001" as="targetPoint" />
          </mxGeometry>
        </mxCell>
        <mxCell id="eplZzicgOQm__7bpvk1a-44" value="" style="endArrow=classic;startArrow=classic;html=1;rounded=0;entryX=1;entryY=0.5;entryDx=0;entryDy=0;exitX=0;exitY=0.5;exitDx=0;exitDy=0;" parent="1" edge="1">
          <mxGeometry width="50" height="50" relative="1" as="geometry">
            <mxPoint x="327.8699999999981" y="440" as="sourcePoint" />
            <mxPoint x="434.1690000000017" y="440" as="targetPoint" />
          </mxGeometry>
        </mxCell>
        <mxCell id="eplZzicgOQm__7bpvk1a-58" value="&lt;font style=&quot;font-size: 40px;&quot; face=&quot;Times New Roman&quot;&gt;Start&lt;/font&gt;" style="text;html=1;align=center;verticalAlign=middle;whiteSpace=wrap;rounded=0;" parent="1" vertex="1">
          <mxGeometry x="350" y="490" width="60" height="30" as="geometry" />
        </mxCell>
        <mxCell id="z3EEsor7v8t6Cd3uI0fl-3" value="" style="endArrow=classic;html=1;rounded=0;edgeStyle=orthogonalEdgeStyle;entryX=0;entryY=0.5;entryDx=0;entryDy=0;" edge="1" parent="1" target="z3EEsor7v8t6Cd3uI0fl-15">
          <mxGeometry width="50" height="50" relative="1" as="geometry">
            <mxPoint x="360" y="735.16" as="sourcePoint" />
            <mxPoint x="270" y="1050" as="targetPoint" />
            <Array as="points">
              <mxPoint x="360" y="760" />
              <mxPoint x="170" y="760" />
              <mxPoint x="170" y="1005" />
            </Array>
          </mxGeometry>
        </mxCell>
        <mxCell id="z3EEsor7v8t6Cd3uI0fl-4" value="" style="endArrow=classic;html=1;rounded=0;edgeStyle=orthogonalEdgeStyle;entryX=0;entryY=0.5;entryDx=0;entryDy=0;" edge="1" parent="1" target="z3EEsor7v8t6Cd3uI0fl-14">
          <mxGeometry width="50" height="50" relative="1" as="geometry">
            <mxPoint x="400" y="735.16" as="sourcePoint" />
            <mxPoint x="270" y="1030" as="targetPoint" />
            <Array as="points">
              <mxPoint x="400" y="770" />
              <mxPoint x="180" y="770" />
              <mxPoint x="180" y="975" />
            </Array>
          </mxGeometry>
        </mxCell>
        <mxCell id="z3EEsor7v8t6Cd3uI0fl-5" value="" style="endArrow=classic;html=1;rounded=0;edgeStyle=orthogonalEdgeStyle;entryX=0;entryY=0.5;entryDx=0;entryDy=0;" edge="1" parent="1" target="z3EEsor7v8t6Cd3uI0fl-13">
          <mxGeometry width="50" height="50" relative="1" as="geometry">
            <mxPoint x="520" y="735.16" as="sourcePoint" />
            <mxPoint x="270" y="1010" as="targetPoint" />
            <Array as="points">
              <mxPoint x="520" y="780" />
              <mxPoint x="190" y="780" />
              <mxPoint x="190" y="945" />
            </Array>
          </mxGeometry>
        </mxCell>
        <mxCell id="z3EEsor7v8t6Cd3uI0fl-6" value="" style="endArrow=classic;html=1;rounded=0;edgeStyle=orthogonalEdgeStyle;entryX=0;entryY=0.5;entryDx=0;entryDy=0;" edge="1" parent="1" target="z3EEsor7v8t6Cd3uI0fl-12">
          <mxGeometry width="50" height="50" relative="1" as="geometry">
            <mxPoint x="560" y="735.16" as="sourcePoint" />
            <mxPoint x="280" y="990" as="targetPoint" />
            <Array as="points">
              <mxPoint x="560" y="790" />
              <mxPoint x="200" y="790" />
              <mxPoint x="200" y="915" />
            </Array>
          </mxGeometry>
        </mxCell>
        <mxCell id="z3EEsor7v8t6Cd3uI0fl-7" value="" style="endArrow=classic;html=1;rounded=0;edgeStyle=orthogonalEdgeStyle;entryX=0;entryY=0.5;entryDx=0;entryDy=0;" edge="1" parent="1" target="z3EEsor7v8t6Cd3uI0fl-11">
          <mxGeometry width="50" height="50" relative="1" as="geometry">
            <mxPoint x="679.17" y="735.16" as="sourcePoint" />
            <mxPoint x="280" y="970" as="targetPoint" />
            <Array as="points">
              <mxPoint x="679" y="800" />
              <mxPoint x="210" y="800" />
              <mxPoint x="210" y="885" />
            </Array>
          </mxGeometry>
        </mxCell>
        <mxCell id="z3EEsor7v8t6Cd3uI0fl-8" value="" style="endArrow=classic;html=1;rounded=0;edgeStyle=orthogonalEdgeStyle;entryX=0;entryY=0.5;entryDx=0;entryDy=0;" edge="1" parent="1" target="z3EEsor7v8t6Cd3uI0fl-10">
          <mxGeometry width="50" height="50" relative="1" as="geometry">
            <mxPoint x="719.17" y="735.16" as="sourcePoint" />
            <mxPoint x="280" y="950" as="targetPoint" />
            <Array as="points">
              <mxPoint x="719" y="810" />
              <mxPoint x="220" y="810" />
              <mxPoint x="220" y="855" />
            </Array>
          </mxGeometry>
        </mxCell>
        <mxCell id="z3EEsor7v8t6Cd3uI0fl-9" value="" style="endArrow=classic;html=1;rounded=0;edgeStyle=orthogonalEdgeStyle;entryX=0;entryY=0.5;entryDx=0;entryDy=0;" edge="1" parent="1" target="z3EEsor7v8t6Cd3uI0fl-16">
          <mxGeometry width="50" height="50" relative="1" as="geometry">
            <mxPoint x="160" y="735.16" as="sourcePoint" />
            <mxPoint x="270" y="1080" as="targetPoint" />
            <Array as="points">
              <mxPoint x="160" y="1035" />
            </Array>
          </mxGeometry>
        </mxCell>
        <mxCell id="z3EEsor7v8t6Cd3uI0fl-10" value="&lt;font style=&quot;font-size: 14px;&quot; face=&quot;Times New Roman&quot;&gt;Button - A&lt;/font&gt;" style="text;html=1;align=center;verticalAlign=middle;whiteSpace=wrap;rounded=0;" vertex="1" parent="1">
          <mxGeometry x="320" y="840" width="70" height="30" as="geometry" />
        </mxCell>
        <mxCell id="z3EEsor7v8t6Cd3uI0fl-11" value="&lt;font style=&quot;font-size: 14px;&quot; face=&quot;Times New Roman&quot;&gt;Button - B&lt;/font&gt;" style="text;html=1;align=center;verticalAlign=middle;whiteSpace=wrap;rounded=0;" vertex="1" parent="1">
          <mxGeometry x="320" y="870" width="70" height="30" as="geometry" />
        </mxCell>
        <mxCell id="z3EEsor7v8t6Cd3uI0fl-12" value="&lt;font style=&quot;font-size: 14px;&quot; face=&quot;Times New Roman&quot;&gt;Button - X&lt;/font&gt;" style="text;html=1;align=center;verticalAlign=middle;whiteSpace=wrap;rounded=0;" vertex="1" parent="1">
          <mxGeometry x="320" y="900" width="70" height="30" as="geometry" />
        </mxCell>
        <mxCell id="z3EEsor7v8t6Cd3uI0fl-13" value="&lt;font style=&quot;font-size: 14px;&quot; face=&quot;Times New Roman&quot;&gt;Button - Y&lt;/font&gt;" style="text;html=1;align=center;verticalAlign=middle;whiteSpace=wrap;rounded=0;" vertex="1" parent="1">
          <mxGeometry x="320" y="930" width="70" height="30" as="geometry" />
        </mxCell>
        <mxCell id="z3EEsor7v8t6Cd3uI0fl-14" value="&lt;font style=&quot;font-size: 14px;&quot; face=&quot;Times New Roman&quot;&gt;Start&lt;/font&gt;" style="text;html=1;align=center;verticalAlign=middle;whiteSpace=wrap;rounded=0;" vertex="1" parent="1">
          <mxGeometry x="320" y="960" width="70" height="30" as="geometry" />
        </mxCell>
        <mxCell id="z3EEsor7v8t6Cd3uI0fl-15" value="&lt;font style=&quot;font-size: 14px;&quot; face=&quot;Times New Roman&quot;&gt;Select&lt;/font&gt;" style="text;html=1;align=center;verticalAlign=middle;whiteSpace=wrap;rounded=0;" vertex="1" parent="1">
          <mxGeometry x="320" y="990" width="70" height="30" as="geometry" />
        </mxCell>
        <mxCell id="z3EEsor7v8t6Cd3uI0fl-16" value="&lt;font style=&quot;font-size: 14px;&quot; face=&quot;Times New Roman&quot;&gt;Joystick&lt;/font&gt;" style="text;html=1;align=center;verticalAlign=middle;whiteSpace=wrap;rounded=0;" vertex="1" parent="1">
          <mxGeometry x="320" y="1020" width="70" height="30" as="geometry" />
        </mxCell>
        <mxCell id="z3EEsor7v8t6Cd3uI0fl-18" value="" style="endArrow=none;html=1;rounded=0;exitX=1;exitY=0.5;exitDx=0;exitDy=0;endFill=0;" edge="1" parent="1" source="z3EEsor7v8t6Cd3uI0fl-13">
          <mxGeometry width="50" height="50" relative="1" as="geometry">
            <mxPoint x="420" y="944.66" as="sourcePoint" />
            <mxPoint x="480" y="945" as="targetPoint" />
          </mxGeometry>
        </mxCell>
        <mxCell id="z3EEsor7v8t6Cd3uI0fl-19" value="" style="endArrow=none;html=1;rounded=0;exitX=1;exitY=0.5;exitDx=0;exitDy=0;edgeStyle=orthogonalEdgeStyle;endFill=0;" edge="1" parent="1">
          <mxGeometry width="50" height="50" relative="1" as="geometry">
            <mxPoint x="390" y="914.83" as="sourcePoint" />
            <mxPoint x="480" y="930" as="targetPoint" />
            <Array as="points">
              <mxPoint x="400" y="915" />
              <mxPoint x="400" y="930" />
            </Array>
          </mxGeometry>
        </mxCell>
        <mxCell id="z3EEsor7v8t6Cd3uI0fl-20" value="" style="endArrow=none;html=1;rounded=0;exitX=1;exitY=0.5;exitDx=0;exitDy=0;edgeStyle=orthogonalEdgeStyle;endFill=0;" edge="1" parent="1">
          <mxGeometry width="50" height="50" relative="1" as="geometry">
            <mxPoint x="390" y="884.8" as="sourcePoint" />
            <mxPoint x="480" y="920" as="targetPoint" />
            <Array as="points">
              <mxPoint x="410" y="885" />
              <mxPoint x="410" y="920" />
            </Array>
          </mxGeometry>
        </mxCell>
        <mxCell id="z3EEsor7v8t6Cd3uI0fl-21" value="" style="endArrow=none;html=1;rounded=0;exitX=1;exitY=0.5;exitDx=0;exitDy=0;edgeStyle=orthogonalEdgeStyle;endFill=0;" edge="1" parent="1">
          <mxGeometry width="50" height="50" relative="1" as="geometry">
            <mxPoint x="390" y="854.8" as="sourcePoint" />
            <mxPoint x="480" y="910" as="targetPoint" />
            <Array as="points">
              <mxPoint x="420" y="855" />
              <mxPoint x="420" y="910" />
              <mxPoint x="480" y="910" />
            </Array>
          </mxGeometry>
        </mxCell>
        <mxCell id="z3EEsor7v8t6Cd3uI0fl-22" value="" style="endArrow=none;html=1;rounded=0;edgeStyle=orthogonalEdgeStyle;exitX=1;exitY=0.5;exitDx=0;exitDy=0;endFill=0;" edge="1" parent="1" source="z3EEsor7v8t6Cd3uI0fl-14">
          <mxGeometry width="50" height="50" relative="1" as="geometry">
            <mxPoint x="390" y="960" as="sourcePoint" />
            <mxPoint x="480" y="959.9699999999999" as="targetPoint" />
            <Array as="points">
              <mxPoint x="400" y="975" />
              <mxPoint x="400" y="960" />
            </Array>
          </mxGeometry>
        </mxCell>
        <mxCell id="z3EEsor7v8t6Cd3uI0fl-23" value="" style="endArrow=none;html=1;rounded=0;edgeStyle=orthogonalEdgeStyle;exitX=1;exitY=0.5;exitDx=0;exitDy=0;endFill=0;" edge="1" parent="1" source="z3EEsor7v8t6Cd3uI0fl-15">
          <mxGeometry width="50" height="50" relative="1" as="geometry">
            <mxPoint x="390" y="990.0000000000001" as="sourcePoint" />
            <mxPoint x="480" y="970" as="targetPoint" />
            <Array as="points">
              <mxPoint x="410" y="1005" />
              <mxPoint x="410" y="970" />
              <mxPoint x="480" y="970" />
            </Array>
          </mxGeometry>
        </mxCell>
        <mxCell id="z3EEsor7v8t6Cd3uI0fl-24" value="" style="endArrow=none;html=1;rounded=0;edgeStyle=orthogonalEdgeStyle;exitX=1;exitY=0.5;exitDx=0;exitDy=0;endFill=0;" edge="1" parent="1" source="z3EEsor7v8t6Cd3uI0fl-16">
          <mxGeometry width="50" height="50" relative="1" as="geometry">
            <mxPoint x="390" y="1015" as="sourcePoint" />
            <mxPoint x="480" y="980" as="targetPoint" />
            <Array as="points">
              <mxPoint x="420" y="1035" />
              <mxPoint x="420" y="980" />
            </Array>
          </mxGeometry>
        </mxCell>
        <mxCell id="z3EEsor7v8t6Cd3uI0fl-25" value="" style="endArrow=none;html=1;rounded=0;" edge="1" parent="1">
          <mxGeometry width="50" height="50" relative="1" as="geometry">
            <mxPoint x="480" y="980" as="sourcePoint" />
            <mxPoint x="480" y="910" as="targetPoint" />
          </mxGeometry>
        </mxCell>
        <mxCell id="z3EEsor7v8t6Cd3uI0fl-26" value="" style="endArrow=classic;html=1;rounded=0;" edge="1" parent="1">
          <mxGeometry width="50" height="50" relative="1" as="geometry">
            <mxPoint x="480" y="945" as="sourcePoint" />
            <mxPoint x="530" y="945" as="targetPoint" />
          </mxGeometry>
        </mxCell>
        <mxCell id="z3EEsor7v8t6Cd3uI0fl-27" value="&lt;font style=&quot;font-size: 14px; color: light-dark(rgb(255, 255, 255), rgb(237, 237, 237));&quot; face=&quot;Times New Roman&quot;&gt;USB-Encoder&lt;/font&gt;" style="text;html=1;align=center;verticalAlign=middle;whiteSpace=wrap;rounded=0;fillColor=#000000;" vertex="1" parent="1">
          <mxGeometry x="532.05" y="930" width="107.95" height="30" as="geometry" />
        </mxCell>
      </root>
    </mxGraphModel>
  </diagram>
</mxfile>
